<svg width="144" height="32" viewBox="0 0 144 32" fill="none" xmlns="http://www.w3.org/2000/svg">
<path d="M0 0.486816C1.55059 0.734194 3.10298 0.968128 4.65716 1.18862V12.7508C6.32427 12.801 7.99228 12.8494 9.66119 12.896C9.66119 9.21406 9.66119 5.53117 9.66119 1.84739C11.2154 2.041 12.7722 2.22025 14.3318 2.38517C14.3318 11.0882 14.3318 19.7939 14.3318 28.5024C12.774 28.6476 11.2172 28.8071 9.66119 28.981V16.7815C7.99049 16.7922 6.32248 16.8048 4.65716 16.8191V29.6102C3.10298 29.8181 1.55059 30.0431 0 30.2851V0.486816Z" fill="white"/>
<path d="M23.7748 28.1418C21.5027 28.287 19.7737 27.8917 18.5825 26.8888C17.3914 25.8858 16.7944 24.2967 16.7944 22.2182C16.7944 15.6985 16.7944 9.17884 16.7944 2.65918C18.354 2.81514 19.9153 2.95854 21.4785 3.0894C21.4785 9.5033 21.4785 15.9172 21.4785 22.3311C21.4785 23.1844 21.6775 23.7912 22.0754 24.1515C22.5003 24.51 23.0963 24.6713 23.8635 24.6355C24.6326 24.6032 25.208 24.3935 25.6113 24.009C26.0146 23.6245 26.2513 23.0168 26.2513 22.1886C26.2513 15.9432 26.2513 9.6978 26.2513 3.4524C27.757 3.55727 29.2655 3.646 30.7713 3.72129C30.7713 9.74978 30.7713 15.7792 30.7713 21.8095C30.7713 23.7293 30.1744 25.219 28.9778 26.316C27.7812 27.4131 26.0496 27.9993 23.7748 28.1418Z" fill="white"/>
<path d="M33.2615 3.84814C35.6492 3.95211 38.0387 4.0283 40.4301 4.0767C42.764 4.1251 44.5172 4.61448 45.6842 5.58248C46.8511 6.55048 47.4346 7.95677 47.4346 9.81748C47.4346 13.6949 47.4346 17.5713 47.4346 21.4469C47.4346 23.3076 46.8502 24.7193 45.6815 25.6819C44.5145 26.6472 42.764 27.1366 40.4301 27.1716C38.0387 27.2074 35.6474 27.2657 33.2561 27.3464C33.2597 19.5127 33.2615 11.68 33.2615 3.84814ZM40.3333 23.8723C41.1023 23.8723 41.6858 23.6931 42.0837 23.3345C42.5113 22.9796 42.7237 22.4096 42.7264 21.619C42.7264 17.6287 42.7264 13.6375 42.7264 9.64539C42.7264 8.85486 42.5113 8.28212 42.0864 7.92719C41.6616 7.57226 41.1023 7.38941 40.336 7.38941L37.9428 7.34639V23.9019L40.3333 23.8723Z" fill="white"/>
<path d="M49.7446 4.11699C52.1342 4.0901 54.5246 4.03453 56.9159 3.95028C59.2499 3.86424 60.9976 4.26757 62.1646 5.20599C63.3316 6.14442 63.9124 7.58835 63.9124 9.52435C63.9124 13.5541 63.9124 17.5874 63.9124 21.6244C63.9124 23.5639 63.3298 25.0115 62.1646 25.9669C61.0003 26.9215 59.2499 27.3436 56.9159 27.2791C54.5264 27.2146 52.1351 27.1724 49.7419 27.1527L49.7446 4.11699ZM56.8379 23.9314C57.6069 23.9458 58.1904 23.7782 58.5884 23.4286C59.015 23.0701 59.2284 22.4929 59.2284 21.697C59.2284 17.626 59.2284 13.5559 59.2284 9.48671C59.2284 8.68362 59.015 8.1091 58.5884 7.76313C58.1904 7.41626 57.6069 7.25762 56.8406 7.27644L54.4502 7.33291V23.8992C55.2461 23.9099 56.042 23.9314 56.8379 23.9314Z" fill="white"/>
<path d="M66.23 3.47139C67.7931 3.36562 69.3554 3.24821 70.9167 3.11914C70.9167 10.2053 70.9167 17.2905 70.9167 24.3748C73.4855 24.4931 76.0516 24.6356 78.615 24.8024V28.5399C74.4929 28.15 70.3655 27.8569 66.23 27.6364C66.2318 19.5805 66.2318 11.5255 66.23 3.47139Z" fill="white"/>
<path d="M80.0105 2.22115C84.2589 1.73715 88.4993 1.15904 92.7316 0.486816V4.74333C90.0428 5.04807 87.3592 5.32772 84.6811 5.58226V12.8584L91.0807 12.6702V16.8541C88.9511 16.8254 86.8179 16.8048 84.6811 16.7922V25.2488C87.37 25.4729 90.0535 25.7328 92.7316 26.0286V30.2851C88.4993 29.6236 84.2616 29.0966 80.0132 28.6718C80.0132 19.854 80.0123 11.0371 80.0105 2.22115Z" fill="white"/>
<path d="M124.063 0H104.703C103.134 0 101.629 0.623245 100.52 1.73263C99.4103 2.84201 98.7871 4.34666 98.7871 5.91556V25.2756C98.7871 26.8445 99.4103 28.3491 100.52 29.4585C101.629 30.5679 103.134 31.1911 104.703 31.1911H124.063C125.632 31.1911 127.136 30.5679 128.246 29.4585C129.355 28.3491 129.978 26.8445 129.978 25.2756V5.91556C129.978 4.34666 129.355 2.84201 128.246 1.73263C127.136 0.623245 125.632 0 124.063 0V0Z" fill="#243CFF"/>
<path d="M140.714 5.57701C140.442 5.63533 140.184 5.74483 139.953 5.89968L135.342 8.70688C134.619 9.15066 134.026 9.77656 133.621 10.5219C133.205 11.283 132.988 12.1365 132.989 13.0037V18.1987C132.989 19.0678 133.207 19.9232 133.624 20.6859C134.03 21.4332 134.626 22.0602 135.353 22.5036L139.999 25.3108C140.3 25.4967 140.636 25.6184 140.986 25.6684C141.334 25.717 141.688 25.6923 142.026 25.5958C142.368 25.4971 142.686 25.3307 142.962 25.1064C143.242 24.8767 143.474 24.5944 143.645 24.2756C143.879 23.8388 144 23.3511 144 22.8558V8.30893C143.999 7.88741 143.907 7.47104 143.731 7.08817C143.557 6.71181 143.302 6.37854 142.984 6.1121C142.672 5.85143 142.304 5.66727 141.908 5.57432C141.516 5.48018 141.106 5.48111 140.714 5.57701Z" fill="#243CFF"/>
<path d="M110.126 25.6923C108.681 25.6923 107.576 25.2719 106.811 24.4312C106.045 23.5904 105.662 22.4037 105.662 20.8711V10.7877C105.662 9.25148 106.045 8.06389 106.811 7.22496C107.576 6.38602 108.681 5.96566 110.126 5.96387C111.56 5.96387 112.664 6.38423 113.439 7.22496C114.213 8.06568 114.596 9.25328 114.587 10.7877V20.8711C114.587 22.4037 114.204 23.5904 113.439 24.4312C112.673 25.2719 111.569 25.6923 110.126 25.6923ZM110.126 22.9523C111.139 22.9523 111.646 22.3249 111.648 21.0701V10.5941C111.648 9.33932 111.141 8.71191 110.126 8.71191C109.111 8.71191 108.603 9.33932 108.601 10.5941V21.062C108.601 22.324 109.11 22.9541 110.126 22.9523Z" fill="white"/>
<path d="M120.159 10.7879H117.085V8.65022C117.76 8.66968 118.434 8.59548 119.088 8.42973C119.561 8.31533 119.991 8.06808 120.328 7.71717C120.684 7.27704 120.957 6.77597 121.135 6.23828H123.111V25.4181H120.159V10.7879Z" fill="white"/>
</svg>
